<?xml version="1.0" encoding="utf-8"?>
<!-- Generator: Adobe Illustrator 27.9.0, SVG Export Plug-In . SVG Version: 6.00 Build 0)  -->
<svg version="1.1" id="Livello_1" xmlns="http://www.w3.org/2000/svg" xmlns:xlink="http://www.w3.org/1999/xlink" x="0px" y="0px"
	 viewBox="0 0 210 187.3" style="enable-background:new 0 0 210 187.3;" xml:space="preserve">
<style type="text/css">
	.st0{fill-rule:evenodd;clip-rule:evenodd;fill:#FFFFFF;}
</style>
<g>
	<path class="st0" d="M108.3,175c0,0.8,0.9,0.8,1,0c1.2-5.6,2.9-9.4,5.7-13l-6.2,0c-0.3,0-0.5,0.2-0.5,0.5V175L108.3,175z
		 M152.8,96.9c0.1,8.1-2.3,15.1-17.1,30L124,138.6c-5.3,5.3-10.1,10.2-13,15.1h11.6l1.4-1.4l16.8-16.9c14-14,16-28.9,13-38.6
		C153.5,96.1,152.8,96,152.8,96.9L152.8,96.9z M138,146.5L124,160.6c-8.5,8.5-15.7,15.9-15.7,23.9l0,2.2c0,0.6,0.8,0.7,1,0.1
		c2.6-7.2,11.4-14.9,27.5-12.1c0,0,70.2,12.1,70.8,12.2c0.7,0.1,1-0.6,0.6-1.1c-0.3-0.3-32.7-32.7-32.7-32.7L138,146.5z M87.3,162
		c-0.3,0-0.5-0.2-0.5-0.5v-7.3c0-0.3,0.2-0.5,0.5-0.5l12.3,0c0.3,0,0.5-0.2,0.5-0.5c0-6.5-4.9-11-24.7-7.5L32.9,153
		c0,0-32.4,32.4-32.7,32.7c-0.4,0.5-0.1,1.2,0.6,1.1c0.6-0.1,70.8-12.2,70.8-12.2c16.1-2.7,24.9,5,27.5,12.1c0.2,0.6,1,0.5,1-0.1
		l0-24.2c0-0.3-0.2-0.5-0.5-0.5L87.3,162L87.3,162z M67.7,60.4c-14,14-16,28.9-13,38.6c0.3,0.8,1,0.9,1,0c-0.1-8.1,2.3-15.1,17.1-30
		l32-32c8.5-8.5,15.7-15.9,15.7-23.9V0.6c0-0.8-0.9-0.8-1,0c-2.1,10.2-6.2,14.3-14.6,22.7L67.7,60.4L67.7,60.4z M120.4,22.5
		c0-0.8-0.9-0.8-1,0c-2.1,10.2-6.2,14.3-14.6,22.8L71.2,78.8C54.9,95.2,52.1,111,60.4,121.1c0.6,0.7,1.1,0.3,0.8-0.5
		c-5.5-12.4,7.7-25.6,13.9-31.8L104.8,59c8.5-8.5,15.7-15.9,15.7-23.9V22.5L120.4,22.5z M72.1,99.9c-16.3,16.3-8.8,32.1,0.7,36.4
		c0.8,0.4,1.2-0.3,0.5-0.8c-7.6-6.6-5.3-17.7,4.3-27.3L104.7,81c8.5-8.5,15.7-15.9,15.7-23.9V44.6c0-0.8-0.9-0.8-1,0
		c-2.1,10.2-6.2,14.2-14.6,22.7L72.1,99.9z M108.3,153.1c0,0.8,0.9,0.8,1,0c2.1-10.2,6.2-14.3,14.6-22.8l13.3-13.3
		c16.3-16.3,19.1-32.1,10.8-42.3c-0.6-0.7-1.1-0.3-0.8,0.5c5.5,12.4-7.7,25.6-13.9,31.8l-9.4,9.4c-8.5,8.5-15.7,15.9-15.7,23.9
		V153.1L108.3,153.1z M123.9,108.3c-8.4,8.4-12.5,12.4-14.6,22.7c-0.2,0.8-1,0.8-1,0v-12.5c0-8,7.1-15.4,15.7-23.9l6.8-6.9
		c9.6-9.6,11.9-20.7,4.3-27.3c-0.6-0.6-0.3-1.2,0.5-0.8c9.5,4.3,17,20.1,0.7,36.4L123.9,108.3L123.9,108.3z"/>
</g>
</svg>
