<?xml version="1.0" encoding="utf-8"?>
<!-- Generator: Adobe Illustrator 27.9.0, SVG Export Plug-In . SVG Version: 6.00 Build 0)  -->
<svg version="1.1" id="Livello_1" xmlns="http://www.w3.org/2000/svg" xmlns:xlink="http://www.w3.org/1999/xlink" x="0px" y="0px"
	 viewBox="0 0 210 188.7" style="enable-background:new 0 0 210 188.7;" xml:space="preserve">
<style type="text/css">
	.st0{fill-rule:evenodd;clip-rule:evenodd;}
</style>
<g>
	<path class="st0" d="M109.1,176.4c0,0.8,0.9,0.8,1,0c1.2-5.7,2.9-9.5,5.7-13.1l-6.2,0c-0.3,0-0.5,0.2-0.5,0.5V176.4L109.1,176.4z
		 M154,97.6c0.1,8.2-2.3,15.2-17.2,30.2l-11.8,11.8c-5.4,5.4-10.2,10.3-13.1,15.2h11.7l1.4-1.4l17-17C156,122.4,158,107.4,155,97.7
		C154.7,96.8,154,96.8,154,97.6L154,97.6z M139.1,147.7l-14.2,14.2c-8.6,8.6-15.8,16-15.8,24.1l0,2.3c0,0.6,0.8,0.7,1,0.1
		c2.7-7.2,11.5-15,27.7-12.2c0,0,70.7,12.2,71.3,12.3c0.7,0.1,1-0.6,0.6-1.1c-0.3-0.3-32.9-33-32.9-33L139.1,147.7z M87.9,163.3
		c-0.3,0-0.5-0.2-0.5-0.5v-7.3c0-0.3,0.2-0.5,0.5-0.5l12.4,0c0.3,0,0.5-0.2,0.5-0.5c0-6.6-5-11.1-24.8-7.6l-42.9,7.4
		c0,0-32.7,32.7-32.9,33c-0.4,0.5-0.1,1.2,0.6,1.1c0.6-0.1,71.3-12.3,71.3-12.3c16.2-2.7,25.1,5,27.7,12.2c0.2,0.6,1,0.5,1-0.1
		l0-24.4c0-0.3-0.2-0.5-0.5-0.5L87.9,163.3L87.9,163.3z M68.2,60.9C54,75,52.1,90,55.1,99.7c0.3,0.8,1,0.9,1,0
		c-0.1-8.2,2.3-15.2,17.2-30.2l32.2-32.3c8.6-8.6,15.8-16,15.8-24.1V0.6c0-0.8-0.9-0.8-1,0c-2.1,10.3-6.2,14.4-14.7,22.9L68.2,60.9
		L68.2,60.9z M121.4,22.7c0-0.8-0.9-0.8-1,0c-2.1,10.3-6.2,14.4-14.7,22.9L71.7,79.4C55.3,95.9,52.5,111.8,60.8,122
		c0.6,0.7,1.2,0.3,0.8-0.6c-5.5-12.5,7.7-25.8,14-32.1l29.9-29.9c8.6-8.6,15.8-16,15.8-24.1V22.7L121.4,22.7z M72.7,100.7
		c-16.4,16.4-8.9,32.3,0.7,36.7c0.8,0.4,1.2-0.3,0.5-0.9c-7.7-6.7-5.4-17.9,4.3-27.6l27.3-27.3c8.6-8.6,15.8-16,15.8-24.1V45
		c0-0.8-0.9-0.8-1,0c-2.1,10.3-6.2,14.3-14.7,22.8L72.7,100.7z M109.1,154.3c0,0.8,0.9,0.8,1,0c2.1-10.3,6.2-14.4,14.7-22.9
		l13.4-13.4c16.4-16.4,19.3-32.4,10.9-42.6c-0.6-0.7-1.2-0.3-0.8,0.5c5.5,12.5-7.7,25.8-14,32.1l-9.5,9.5
		c-8.6,8.6-15.8,16-15.8,24.1V154.3L109.1,154.3z M124.9,109.2c-8.5,8.5-12.6,12.5-14.7,22.8c-0.2,0.8-1,0.8-1,0v-12.6
		c0-8.1,7.2-15.5,15.8-24.1l6.9-6.9c9.7-9.7,12-20.9,4.3-27.6c-0.6-0.6-0.3-1.2,0.5-0.9c9.6,4.4,17.1,20.3,0.7,36.7L124.9,109.2
		L124.9,109.2z"/>
</g>
</svg>
